<?xml version="1.0" encoding="UTF-8"?>
<svg xmlns="http://www.w3.org/2000/svg" version="1.1" viewBox="0 0 512 512">
  <defs>
    <style>
      .cls-1, .cls-2, .cls-3 {
        fill: #fbfcfb;
      }

      .cls-4 {
        fill: #f4f4ed;
      }

      .cls-4, .cls-5, .cls-6, .cls-7, .cls-2, .cls-8, .cls-9, .cls-3, .cls-10, .cls-11 {
        isolation: isolate;
      }

      .cls-4, .cls-2 {
        opacity: .5;
      }

      .cls-12 {
        fill: #2e6367;
      }

      .cls-13, .cls-10 {
        fill: #e1e09f;
      }

      .cls-5 {
        fill: #f5fff5;
      }

      .cls-5, .cls-8 {
        opacity: .8;
      }

      .cls-6 {
        fill: #eaf4ef;
      }

      .cls-6, .cls-3 {
        opacity: .3;
      }

      .cls-14 {
        fill: #acdac1;
      }

      .cls-15, .cls-8 {
        fill: #8ccdbe;
      }

      .cls-16 {
        fill: #add9bb;
      }

      .cls-7 {
        fill: #f0f7f6;
        opacity: .4;
      }

      .cls-17 {
        fill: #398d7a;
      }

      .cls-18 {
        fill: #c7dca5;
      }

      .cls-19 {
        fill: #60b5b1;
      }

      .cls-9 {
        fill: #eaf4ea;
      }

      .cls-9, .cls-10 {
        opacity: .7;
      }

      .cls-11 {
        fill: #ebf2eb;
        opacity: .6;
      }
    </style>
  </defs>
  <!-- Generator: Adobe Illustrator 28.7.1, SVG Export Plug-In . SVG Version: 1.2.0 Build 142)  -->
  <g>
    <g id="Layer_1">
      <g id="Layer_1-2" data-name="Layer_1">
        <g>
          <path class="cls-12" d="M421.2,148.7C357.5-141.7-35.3,46.7,129.4,279.2c29.8,47,53.3,98.2,80.3,147-2.8,1.1-4.7,3.9-4.7,7.1v70.1c0,4.2,3.4,7.6,7.6,7.6h89.4c4.2,0,7.6-3.4,7.6-7.6v-70.1c0-3.6-2.5-6.7-6.1-7.5,26.3-47.5,49.9-96.7,77.9-143,31.7-39.2,45.6-83.9,39.7-134h0ZM277.6,7.8c48.9,6.2,92.5,36.1,117.3,78.5,1.8,3,2.3,4.9-1.5,6.7-11.4,5.5-22.5,11.4-33.8,17.2-2.5,1.3-4.4,1.5-6.4-1.1-25.1-34.1-52.6-66.9-76.4-101.6.2.1.4.3.7.4h.1ZM286.7,375h0c-1.2,4.7,3.3,20.7-4,19.9-33.9.2-20.7,2.5-23.4-28.8,0-3.3,1.2-4.3,4.3-4.6,6.6-.8,13-2.3,19-5.2,7.4-5,3,15,4.2,18.8h-.1ZM278.6,349c-1.8,3.5-19.6,12.4-18.9,4v-71.3c0-4.4,3.4-5.3,6.1-7,24.1-14.2,47.8-29.6,72.2-42.9-17.8,39.9-38.8,78.6-59.4,117.3h0ZM259.3,272.3v-100.6c27,17.5,53.5,34.7,80.7,52.3-27,16.2-53.4,32.1-80.7,48.4h0ZM339.4,217.1c-24.4-15.9-48.8-31.7-73.3-47.6-2.1-1.3-3.9-2.5-.4-4.3,28.9-14.2,57.4-31.3,86.4-44.1,1.8,31.6-3,62.4-7.9,93.4-.4,3.6-1,5.2-4.9,2.6h.1ZM260.8,6.1c3.6-.9,7.3-.9,10.3,3.2,25.2,34,51.2,67.2,76.6,101,1.4,1.9,4.7,3.9.1,6.2-29.1,15.1-58.3,30.2-88.5,45.9V12.6c0-2.2-1.7-5.8,1.5-6.6h0ZM285.2,399.9c3.2,0,4.5,1,4.4,4.3-1.1,6.6,1.9,15.6-1,21.4h-63.7c-2.5-6.1,0-14.9-1-21.6,0-3.1,1-4.1,4.1-4h57.2ZM253.2,393.5c-3.1,3.6-10.3,1.1-15.6,1.2-10.4.1-10.4,0-10.5-10.2,0-8.4,0-16.8-.2-25.1,0-3.1,0-5,4.1-3.1,20,9.9,24.5-4.2,23.2,22h.2c-.2,5.2,1.4,12.1-1.2,15.2h0ZM177.4,221.4c25.7-16.8,50.4-32.6,76.4-49.7v100.5c-23.7-13.6-45.4-28.4-69.3-41.1-2.8-1.9-14.7-7.7-7.1-9.9h0ZM170.6,219.8c-6.1-33.1-10.3-65.7-9.6-99.7,30.1,15.6,59.8,30.9,90.5,46.8-27.4,17.9-54,35.3-81,52.9h.1ZM177,232.2c24.8,14.2,49,29.7,73.6,44.3,2.6,1.5,3.6,3.3,3.6,6.4-.1,23-.1,45.9,0,69,0,3.9-.9,4.9-5,4.3-8.4-1.1-13.9-4.3-18.1-12.7-18.2-36.9-37.7-73.2-55.3-110.4l1-1h.1ZM245.7,6.3c5.8-2.2,8.5-.4,8.5,5.8v71.8h0c-.8,25.6,1.5,53-.9,77.8-4,1.2-7.3-4.1-11-5.2-24.8-12.9-49.7-25.8-74.5-38.5-4.4-2.3-5.4-3.9-1.9-8.3,27-34,52.1-70.2,79.8-103.4h0ZM117.6,87.9C144.1,44,182.6,16.9,233.1,7.8c2.6-.4,2.8,1.7,1.2,3.4-24.2,32.4-49,64.3-73.2,96.7-2.5,3.3-4.3,4.3-8.4,2.1-10.9-6-22.1-11.4-33.1-17-2.3-1.1-3.9-2.1-2-5.2h0ZM111.4,99.7c1.4-3.1,2.6-3.9,6-2.1,11.5,6.2,23.2,11.9,34.8,17.9,2.1,1.1,4,2,3.9,5.1-1,32.6,3.6,64.6,8.4,96.6-22.3-13.8-43.3-30.7-65.2-45.4-9.2-14.3,5.5-56.4,12.1-72.1h.1ZM132.6,274.5c-21.4-28.5-35-62-35.4-97.8,15.2,10.6,30.1,21.1,45,31.6,6.5,4.6,12.9,9.4,19.4,13.9,2.5,1.8,3,3.4,1.4,6.2-8.3,15.1-16.6,30.5-24.6,45.7-1.8,3.4-3,4.1-5.7.4h-.1ZM143.3,287c-3.1-3.2-3.4-5.4-1.2-9.4,8.8-15.6,17.2-31.3,26.3-48,19.8,40.3,39.5,79.3,60.4,119.3-32.1-15-60.4-36.9-85.4-62h0ZM155.8,314.1c-1.9-3.5-3.8-7.1-5.6-10.6.4-.3.8-.7,1.2-1,20.6,17.8,42.5,33.9,66.2,47.2,3.1,1.8,4.3,3.8,4.2,7.3,1.7,23.2-2.4,45.8-3.1,68.8h-3.8c-19.5-37.1-39.1-74.7-59.2-111.6h0ZM355.5,318.2c-19.1,35.9-38.4,71.6-57.4,107.5h-2.8c-1.7-7.7,2-17.9-1-25.4-5.1-14.1-1.4-28.4-2.9-42.5-.4-4.3,1.3-6.5,5-8.6,22.4-12.7,43.6-27,62.7-44.4.9-.8,1.5-2.3,4-1.5-2.5,5.1-5,10-7.6,14.9ZM372.4,284.6c-25.5,26-54.4,49.1-87.6,64,21.2-39.4,40.7-78.1,59.8-117.2,2.6.3,3,2.4,3.8,3.8,8.2,14.5,16.1,28.9,24.2,43.4,1.2,2.1,2.2,3.8,0,6.1h-.1ZM416.6,183.8c-3.1,33.5-14.9,63.6-35.2,90.2-2,2.6-3.4,3.2-5.3-.3-8.3-15-16.7-29.9-25.1-44.9-1.5-2.6-1.8-4.9,1.2-7,20.2-14.2,40.2-28.6,60.4-42.9,4.5-3.8,4.1,2,4,4.9h0ZM407.3,176.8c-19.4,12.5-37.5,27-56.8,39.7-.9,1-1.8,0-.8-.8,4.4-30.8,9.8-61.7,8.2-92.9-.1-4,.9-6.4,4.6-8.2,11.1-5.4,22.3-11,33.2-17,3.5-1.9,4.9-1.1,6.4,2.2,8.3,18.2,12.7,37.4,15,57.4,1.1,9.7-2.1,14.5-9.8,19.5Z"/>
          <path class="cls-17" d="M296.6,505.4c-102.4-5.1-83.5,25.4-85.1-67.4,0-3.6,3-6.7,6.7-6.7,102.4,5.1,83.5-25.4,85.1,67.4,0,3.6-3,6.7-6.7,6.7Z"/>
          <path class="cls-11" d="M254.3,84v73.1c1.2,5.2-2,6.6-6,3.1-26.3-15-53.6-28-80.4-42.2-4.4-2.3-5.4-3.9-1.9-8.3,27-34,52.1-70.2,79.8-103.4,5.8-2.2,8.5-.4,8.5,5.8v71.8h0Z"/>
          <path class="cls-18" d="M259.2,162.4V12.7c0-2.2-1.7-5.8,1.5-6.6,3.6-.9,7.3-.9,10.3,3.2,7.5,10.6,15.7,20.9,23.5,31.2,17.7,23.2,35.4,46.5,53,69.7,1.4,1.9,4.7,3.9.1,6.2-29.1,15.1-58.3,30.2-88.5,45.9h.1Z"/>
          <path class="cls-9" d="M164.4,217.2c-22.3-13.8-43.3-30.7-65.2-45.4-2.2-1.5-3-3.2-2.9-5.8-1.2-8.7,9.5-75.5,21-68.2,6.2,4.7,40.4,17.4,38.6,22.8-1,32.6,3.6,64.6,8.4,96.6h.1Z"/>
          <path class="cls-14" d="M349.6,215.8c4.4-30.8,9.8-61.7,8.2-92.9-.1-4,.9-6.4,4.6-8.2,11.1-5.4,22.3-11,33.2-17,11.1-7.4,20.5,51.3,21.4,59.6,1.1,9.7-2.1,14.5-9.8,19.5-19.4,12.5-37.5,27-56.8,39.7-.2-.2-.6-.6-.8-.8Z"/>
          <path class="cls-13" d="M277.6,7.8c48.9,6.2,92.5,36.1,117.3,78.5,1.8,3,2.3,4.9-1.5,6.7-11.4,5.5-22.5,11.4-33.8,17.2-2.6,1.3-4.4,1.5-6.4-1.1-24.8-33.9-52.3-66.4-75.9-101.1l.2-.2h.1Z"/>
          <path class="cls-5" d="M233.1,7.8c8.2-1.2-11.4,18.8-12.4,21.7-19.9,26.2-39.8,52.3-59.6,78.5-2.5,3.3-4.3,4.3-8.4,2.1-10.9-6-22.1-11.4-33.1-17-2.3-1.1-3.9-2.1-2-5.2C144.1,44,182.6,16.9,233.1,7.8h0Z"/>
          <path class="cls-19" d="M352.2,121c1.8,31.6-3,62.4-7.9,93.4-.4,3.6-1,5.2-4.9,2.6-24.4-15.9-48.8-31.7-73.3-47.6-2.1-1.3-3.9-2.5-.4-4.3,28.9-14.2,57.4-31.3,86.4-44.1h.1Z"/>
          <path class="cls-4" d="M170.6,219.8c-6.1-33.1-10.3-65.7-9.6-99.7,30.1,15.6,59.8,30.9,90.5,46.8-27.4,17.9-54,35.3-81,52.9h.1Z"/>
          <path class="cls-6" d="M177,232.2c24.8,14.2,49,29.7,73.6,44.3,2.6,1.5,3.6,3.3,3.6,6.4-.1,23-.1,45.9,0,69,0,3.9-.9,4.9-5,4.3-8.4-1.1-13.9-4.3-18.1-12.7-18.2-36.9-37.7-73.2-55.3-110.4l1-1h.1Z"/>
          <path class="cls-15" d="M259.3,272.3v-100.6c27,17.5,53.5,34.7,80.7,52.3-27,16.2-53.4,32.1-80.7,48.4h0Z"/>
          <path class="cls-10" d="M253.8,272.2c-26.2-16.1-52.2-30.5-77.8-47-3.2-2.5.2-3.2,1.4-4,25.7-16.8,50.4-32.6,76.4-49.7v100.5h0Z"/>
          <path class="cls-15" d="M337.7,232.9c-18.3,39.3-38.5,77.8-59,116-1.8,3.5-19.6,12.4-18.9,4v-71.3c0-4.4,3.4-5.3,6.1-7,23.6-14.2,47.2-28.6,71-42.6.3.3.7.6.9.9h0Z"/>
          <path class="cls-7" d="M168.3,229.7c19.8,40.3,39.5,79.3,60.4,119.3-32.1-15-60.4-36.9-85.4-62-3.1-3.2-3.4-5.4-1.2-9.4,8.8-15.6,17.2-31.3,26.3-48h0Z"/>
          <path class="cls-16" d="M284.8,348.6c21.2-39.4,40.7-78.1,59.8-117.2,2.6.3,3,2.4,3.8,3.8,8.2,14.5,16.1,28.9,24.2,43.4,5.5,13.9-72.7,65.8-87.7,70.1Z"/>
          <path class="cls-19" d="M416.6,183.8c-3.1,33.5-14.9,63.6-35.2,90.2-2,2.6-3.4,3.2-5.3-.3-8.3-15-16.7-29.9-25.1-44.9-1.5-2.6-1.8-4.9,1.2-7,20.2-14.2,40.2-28.6,60.4-42.9,4.5-3.8,4.1,2,4,4.9h0Z"/>
          <path class="cls-8" d="M97.2,176.8c15.2,10.6,30.1,21.1,45,31.6,6.5,4.6,12.9,9.4,19.4,13.9,2.5,1.8,3,3.4,1.4,6.2-8.3,15.1-16.6,30.5-24.6,45.7-1.8,3.4-3,4.1-5.7.4-21.4-28.5-35-62-35.4-97.8h-.1Z"/>
          <path class="cls-2" d="M286.6,375c-1.2,4.7,3.3,20.7-4,19.9-33.9.2-20.7,2.5-23.4-28.8,0-3.3,1.2-4.3,4.3-4.6,6.6-.8,13-2.3,19-5.2,7.4-5,3,15,4.2,18.8h-.1Z"/>
          <path class="cls-3" d="M254.5,378.3c1.2,16.9.1,18.5-16.8,16.4-10.4.2-10.4,0-10.5-10.2,0-8.4,0-16.8-.2-25.1,0-3.1,0-5,4.1-3.1,5.8,2.8,12.1,4.1,18.4,5,8.4.4,3.3,11.5,4.7,17.1h.2v-.2Z"/>
          <path class="cls-13" d="M277.4,8.1c-.1-.2-.3-.4-.4-.7.2.1.4.3.7.4l-.2.2Z"/>
          <path class="cls-14" d="M350.4,216.5c-.9,1-1.7,0-.8-.8.2.2.6.6.8.8Z"/>
          <path class="cls-15" d="M336.8,232.1c.4-.1.8-.2,1.2-.3,0,.4-.2.8-.3,1.2-.3-.3-.7-.6-.9-.9h0Z"/>
          <path class="cls-1" d="M255.1,489.1c6.5,0,11.1-.1,15.8,0,3.5.1,7.9-1.9,8.1,5.1.1,6.6-3.6,5.7-7.6,5.7-8.9,0-18,.2-26.9.1-2.4,0-6,1.5-7-1.8-1-3.4-1.2-7.1,2.1-10.2,8.6-9,19.3-17,26-27.6,5.5-10.5-13.5-18.9-15.9-6.6-1.3,7.6-7.2,5.6-11,4.9-5.2-1.1-2-5.8-1.2-8.5,9.7-29,55-8.4,37.3,17.9-5.1,7.4-12.5,12.6-19.6,20.9h0Z"/>
        </g>
      </g>
    </g>
  </g>
</svg>